<svg xmlns="http://www.w3.org/2000/svg" xmlns:svgjs="http://svgjs.com/svgjs" xmlns:xlink="http://www.w3.org/1999/xlink" width="1440" height="560" preserveAspectRatio="none" version="1.1" viewBox="0 0 1440 560"><g fill="none" mask="url(&quot;#SvgjsMask1814&quot;)"><rect width="1440" height="560" x="0" y="0" fill="url(#SvgjsLinearGradient1815)"/><path fill="rgba(255, 255, 255, .1)" d="M0 0L393.81 0L0 76.22z"/><path fill="rgba(255, 255, 255, .075)" d="M0 76.22L393.81 0L911.4100000000001 0L0 195.88z"/><path fill="rgba(255, 255, 255, .05)" d="M0 195.88L911.4100000000001 0L968.6700000000001 0L0 373.03999999999996z"/><path fill="rgba(255, 255, 255, .025)" d="M0 373.03999999999996L968.6700000000001 0L1220.31 0L0 439.51z"/><path fill="rgba(0, 0, 0, .1)" d="M1440 560L1046.38 560L1440 382.52z"/><path fill="rgba(0, 0, 0, .075)" d="M1440 382.52L1046.38 560L802.7400000000001 560L1440 193.86999999999998z"/><path fill="rgba(0, 0, 0, .05)" d="M1440 193.87L802.74 560L605.29 560L1440 190.19z"/><path fill="rgba(0, 0, 0, .025)" d="M1440 190.19L605.29 560L468.14 560L1440 90.28z"/></g><defs><mask id="SvgjsMask1814"><rect width="1440" height="560" fill="#fff"/></mask><linearGradient id="SvgjsLinearGradient1815" x1="100%" x2="0%" y1="50%" y2="50%" gradientUnits="userSpaceOnUse"><stop offset="0" stop-color="rgba(255, 255, 255, 1)"/><stop offset="1" stop-color="rgba(247, 217, 255, 0.82)"/></linearGradient></defs></svg>