<svg xmlns="http://www.w3.org/2000/svg" xmlns:svgjs="http://svgjs.com/svgjs" xmlns:xlink="http://www.w3.org/1999/xlink" width="1440" height="560" preserveAspectRatio="none" version="1.1" viewBox="0 0 1440 560"><g fill="none" mask="url(&quot;#SvgjsMask1006&quot;)"><path stroke="#037b0b" d="M659.37 166.66L669.38 166.66L669.38 176.67L659.37 176.67z"/><path stroke="#d3b714" d="M56.73 527.98a30.48 30.48 0 1 0-59.4-13.69z"/><path fill="#d3b714" d="M1078.6 453.17 a21.61 21.61 0 1 0 43.22 0 a21.61 21.61 0 1 0 -43.22 0z"/><path fill="#037b0b" d="M222.64 305.29 a18.55 18.55 0 1 0 37.1 0 a18.55 18.55 0 1 0 -37.1 0z"/><path fill="#d3b714" d="M1189.47 207.33a10.7 10.7 0 1 0 0.18-21.4z"/><path stroke="#d3b714" d="M1341.87 298.64L1395.78 298.64L1395.78 319.3L1341.87 319.3z"/><path stroke="#037b0b" d="M1189.37 77.25L1211.83 77.25L1211.83 117.26L1189.37 117.26z"/><path fill="#e73635" d="M610.01 220.9L626.73 220.9L626.73 227.46L610.01 227.46z"/><path stroke="#d3b714" d="M1342 395.4 a7.2 7.2 0 1 0 14.4 0 a7.2 7.2 0 1 0 -14.4 0z"/><path fill="#037b0b" d="M117.55 257.62 a21.87 21.87 0 1 0 43.74 0 a21.87 21.87 0 1 0 -43.74 0z"/><path stroke="#d3b714" d="M358.83 414.33a51.32 51.32 0 1 0-37.86 95.4z"/><path stroke="#e73635" d="M260.24 191.22a37.35 37.35 0 1 0-66.45-34.12z"/><path stroke="#e73635" d="M1330.93 53.4 a30.65 30.65 0 1 0 61.3 0 a30.65 30.65 0 1 0 -61.3 0z"/><path fill="#e73635" d="M530.22 289.4L556.51 289.4L556.51 341.88L530.22 341.88z"/><path fill="#037b0b" d="M704.71 408.12 a41.69 41.69 0 1 0 83.38 0 a41.69 41.69 0 1 0 -83.38 0z"/><path stroke="#037b0b" d="M401.72 339.67L446.92 339.67L446.92 384.87L401.72 384.87z"/><path fill="#d3b714" d="M743.98 554.69L769.67 554.69L769.67 578.94L743.98 578.94z"/><path fill="#d3b714" d="M734.51 339.6L751.17 339.6L751.17 360.73L734.51 360.73z"/><path stroke="#d3b714" d="M370.07 353.4L379.67 353.4L379.67 390.56L370.07 390.56z"/><path fill="#037b0b" d="M1037.46 130.89L1051.18 130.89L1051.18 144.61L1037.46 144.61z"/><path fill="#037b0b" d="M1277.44 48.35L1288.15 48.35L1288.15 59.06L1277.44 59.06z"/><path fill="#d3b714" d="M837.38 377.04 a46.99 46.99 0 1 0 93.98 0 a46.99 46.99 0 1 0 -93.98 0z"/><path fill="#d3b714" d="M219.81 169.35L233.48 169.35L233.48 183.02L219.81 183.02z"/><path fill="#e73635" d="M734.75 526.53a1.77 1.77 0 1 0-2.79 2.18z"/><path stroke="#037b0b" d="M923.21 244.01a51.71 51.71 0 1 0-24.94 100.37z"/><path stroke="#e73635" d="M64.49 2.04 a24.26 24.26 0 1 0 48.52 0 a24.26 24.26 0 1 0 -48.52 0z"/><path stroke="#037b0b" d="M215.27 104.13 a4.28 4.28 0 1 0 8.56 0 a4.28 4.28 0 1 0 -8.56 0z"/><path stroke="#e73635" d="M1184.31 517.31L1233.43 517.31L1233.43 566.43L1184.31 566.43z"/><path stroke="#d3b714" d="M731.77 51.61L775.53 51.61L775.53 91.62L731.77 91.62z"/><path fill="#037b0b" d="M953.51 516.7L965.75 516.7L965.75 528.94L953.51 528.94z"/><path fill="#037b0b" d="M78.13 334.62a50.32 50.32 0 1 0-100.35-7.61z"/><path fill="#e73635" d="M772.97 240 a49.95 49.95 0 1 0 99.9 0 a49.95 49.95 0 1 0 -99.9 0z"/><path stroke="#e73635" d="M601.93 4.49 a46.12 46.12 0 1 0 92.24 0 a46.12 46.12 0 1 0 -92.24 0z"/></g><defs><mask id="SvgjsMask1006"><rect width="1440" height="560" fill="#fff"/></mask></defs></svg>