<svg xmlns="http://www.w3.org/2000/svg" xmlns:svgjs="http://svgjs.com/svgjs" xmlns:xlink="http://www.w3.org/1999/xlink" width="1440" height="560" preserveAspectRatio="none" version="1.1" viewBox="0 0 1440 560"><g fill="none" mask="url(&quot;#SvgjsMask1040&quot;)"><use x="0" y="0" xlink:href="#SvgjsSymbol1047"/><use x="720" y="0" xlink:href="#SvgjsSymbol1047"/></g><defs><mask id="SvgjsMask1040"><rect width="1440" height="560" fill="#fff"/></mask><path id="SvgjsPath1044" d="M-1 0 a1 1 0 1 0 2 0 a1 1 0 1 0 -2 0z"/><path id="SvgjsPath1045" d="M-3 0 a3 3 0 1 0 6 0 a3 3 0 1 0 -6 0z"/><path id="SvgjsPath1041" d="M-5 0 a5 5 0 1 0 10 0 a5 5 0 1 0 -10 0z"/><path id="SvgjsPath1043" d="M2 -2 L-2 2z"/><path id="SvgjsPath1042" d="M6 -6 L-6 6z"/><path id="SvgjsPath1046" d="M30 -30 L-30 30z"/></defs><symbol id="SvgjsSymbol1047"><use x="30" y="30" stroke="rgba(66, 90, 86, 1)" xlink:href="#SvgjsPath1041"/><use x="30" y="90" stroke="#1c538e" xlink:href="#SvgjsPath1041"/><use x="30" y="150" stroke="#1c538e" xlink:href="#SvgjsPath1042"/><use x="30" y="210" stroke="rgba(66, 90, 86, 1)" xlink:href="#SvgjsPath1043"/><use x="30" y="270" stroke="rgba(74, 66, 90, 1)" xlink:href="#SvgjsPath1042"/><use x="30" y="330" stroke="#1c538e" xlink:href="#SvgjsPath1041"/><use x="30" y="390" stroke="rgba(66, 90, 86, 1)" xlink:href="#SvgjsPath1041"/><use x="30" y="450" stroke="rgba(66, 90, 86, 1)" xlink:href="#SvgjsPath1044"/><use x="30" y="510" stroke="#1c538e" xlink:href="#SvgjsPath1041"/><use x="30" y="570" stroke="rgba(74, 66, 90, 1)" xlink:href="#SvgjsPath1041"/><use x="90" y="30" stroke="#1c538e" xlink:href="#SvgjsPath1042"/><use x="90" y="90" stroke="rgba(74, 66, 90, 1)" xlink:href="#SvgjsPath1042"/><use x="90" y="150" stroke="rgba(66, 90, 86, 1)" xlink:href="#SvgjsPath1041"/><use x="90" y="210" stroke="rgba(74, 66, 90, 1)" xlink:href="#SvgjsPath1041"/><use x="90" y="270" stroke="rgba(66, 90, 86, 1)" xlink:href="#SvgjsPath1042"/><use x="90" y="330" stroke="rgba(66, 90, 86, 1)" xlink:href="#SvgjsPath1045"/><use x="90" y="390" stroke="#1c538e" xlink:href="#SvgjsPath1045"/><use x="90" y="450" stroke="#1c538e" stroke-width="3" xlink:href="#SvgjsPath1046"/><use x="90" y="510" stroke="rgba(74, 66, 90, 1)" xlink:href="#SvgjsPath1041"/><use x="90" y="570" stroke="#1c538e" stroke-width="3" xlink:href="#SvgjsPath1046"/><use x="150" y="30" stroke="rgba(66, 90, 86, 1)" xlink:href="#SvgjsPath1045"/><use x="150" y="90" stroke="#1c538e" xlink:href="#SvgjsPath1044"/><use x="150" y="150" stroke="rgba(74, 66, 90, 1)" xlink:href="#SvgjsPath1044"/><use x="150" y="210" stroke="rgba(66, 90, 86, 1)" xlink:href="#SvgjsPath1045"/><use x="150" y="270" stroke="rgba(74, 66, 90, 1)" xlink:href="#SvgjsPath1045"/><use x="150" y="330" stroke="rgba(74, 66, 90, 1)" xlink:href="#SvgjsPath1041"/><use x="150" y="390" stroke="#1c538e" xlink:href="#SvgjsPath1042"/><use x="150" y="450" stroke="#1c538e" xlink:href="#SvgjsPath1041"/><use x="150" y="510" stroke="rgba(74, 66, 90, 1)" xlink:href="#SvgjsPath1044"/><use x="150" y="570" stroke="#1c538e" xlink:href="#SvgjsPath1044"/><use x="210" y="30" stroke="rgba(74, 66, 90, 1)" xlink:href="#SvgjsPath1043"/><use x="210" y="90" stroke="rgba(74, 66, 90, 1)" stroke-width="3" xlink:href="#SvgjsPath1046"/><use x="210" y="150" stroke="rgba(74, 66, 90, 1)" xlink:href="#SvgjsPath1041"/><use x="210" y="210" stroke="rgba(74, 66, 90, 1)" xlink:href="#SvgjsPath1042"/><use x="210" y="270" stroke="#1c538e" stroke-width="3" xlink:href="#SvgjsPath1046"/><use x="210" y="330" stroke="#1c538e" xlink:href="#SvgjsPath1041"/><use x="210" y="390" stroke="rgba(66, 90, 86, 1)" xlink:href="#SvgjsPath1042"/><use x="210" y="450" stroke="rgba(74, 66, 90, 1)" xlink:href="#SvgjsPath1041"/><use x="210" y="510" stroke="rgba(66, 90, 86, 1)" xlink:href="#SvgjsPath1045"/><use x="210" y="570" stroke="#1c538e" xlink:href="#SvgjsPath1042"/><use x="270" y="30" stroke="#1c538e" xlink:href="#SvgjsPath1041"/><use x="270" y="90" stroke="rgba(74, 66, 90, 1)" xlink:href="#SvgjsPath1041"/><use x="270" y="150" stroke="rgba(66, 90, 86, 1)" xlink:href="#SvgjsPath1045"/><use x="270" y="210" stroke="#1c538e" xlink:href="#SvgjsPath1042"/><use x="270" y="270" stroke="rgba(74, 66, 90, 1)" xlink:href="#SvgjsPath1041"/><use x="270" y="330" stroke="rgba(66, 90, 86, 1)" xlink:href="#SvgjsPath1042"/><use x="270" y="390" stroke="#1c538e" xlink:href="#SvgjsPath1042"/><use x="270" y="450" stroke="rgba(74, 66, 90, 1)" xlink:href="#SvgjsPath1043"/><use x="270" y="510" stroke="#1c538e" xlink:href="#SvgjsPath1044"/><use x="270" y="570" stroke="rgba(74, 66, 90, 1)" xlink:href="#SvgjsPath1042"/><use x="330" y="30" stroke="rgba(66, 90, 86, 1)" xlink:href="#SvgjsPath1042"/><use x="330" y="90" stroke="rgba(74, 66, 90, 1)" xlink:href="#SvgjsPath1042"/><use x="330" y="150" stroke="#1c538e" xlink:href="#SvgjsPath1041"/><use x="330" y="210" stroke="#1c538e" xlink:href="#SvgjsPath1041"/><use x="330" y="270" stroke="rgba(66, 90, 86, 1)" xlink:href="#SvgjsPath1041"/><use x="330" y="330" stroke="#1c538e" xlink:href="#SvgjsPath1042"/><use x="330" y="390" stroke="rgba(66, 90, 86, 1)" xlink:href="#SvgjsPath1041"/><use x="330" y="450" stroke="#1c538e" xlink:href="#SvgjsPath1045"/><use x="330" y="510" stroke="#1c538e" xlink:href="#SvgjsPath1041"/><use x="330" y="570" stroke="rgba(66, 90, 86, 1)" xlink:href="#SvgjsPath1044"/><use x="390" y="30" stroke="#1c538e" xlink:href="#SvgjsPath1042"/><use x="390" y="90" stroke="rgba(66, 90, 86, 1)" stroke-width="3" xlink:href="#SvgjsPath1046"/><use x="390" y="150" stroke="rgba(74, 66, 90, 1)" xlink:href="#SvgjsPath1042"/><use x="390" y="210" stroke="#1c538e" xlink:href="#SvgjsPath1042"/><use x="390" y="270" stroke="rgba(66, 90, 86, 1)" stroke-width="3" xlink:href="#SvgjsPath1046"/><use x="390" y="330" stroke="rgba(66, 90, 86, 1)" xlink:href="#SvgjsPath1043"/><use x="390" y="390" stroke="#1c538e" xlink:href="#SvgjsPath1043"/><use x="390" y="450" stroke="rgba(66, 90, 86, 1)" xlink:href="#SvgjsPath1041"/><use x="390" y="510" stroke="#1c538e" xlink:href="#SvgjsPath1042"/><use x="390" y="570" stroke="rgba(66, 90, 86, 1)" xlink:href="#SvgjsPath1044"/><use x="450" y="30" stroke="rgba(74, 66, 90, 1)" xlink:href="#SvgjsPath1041"/><use x="450" y="90" stroke="#1c538e" xlink:href="#SvgjsPath1045"/><use x="450" y="150" stroke="#1c538e" xlink:href="#SvgjsPath1042"/><use x="450" y="210" stroke="#1c538e" xlink:href="#SvgjsPath1041"/><use x="450" y="270" stroke="rgba(74, 66, 90, 1)" xlink:href="#SvgjsPath1042"/><use x="450" y="330" stroke="#1c538e" xlink:href="#SvgjsPath1041"/><use x="450" y="390" stroke="#1c538e" xlink:href="#SvgjsPath1042"/><use x="450" y="450" stroke="#1c538e" xlink:href="#SvgjsPath1042"/><use x="450" y="510" stroke="rgba(66, 90, 86, 1)" xlink:href="#SvgjsPath1045"/><use x="450" y="570" stroke="rgba(66, 90, 86, 1)" xlink:href="#SvgjsPath1042"/><use x="510" y="30" stroke="#1c538e" xlink:href="#SvgjsPath1042"/><use x="510" y="90" stroke="rgba(74, 66, 90, 1)" xlink:href="#SvgjsPath1043"/><use x="510" y="150" stroke="rgba(66, 90, 86, 1)" xlink:href="#SvgjsPath1042"/><use x="510" y="210" stroke="rgba(66, 90, 86, 1)" xlink:href="#SvgjsPath1041"/><use x="510" y="270" stroke="#1c538e" xlink:href="#SvgjsPath1041"/><use x="510" y="330" stroke="rgba(66, 90, 86, 1)" xlink:href="#SvgjsPath1042"/><use x="510" y="390" stroke="rgba(74, 66, 90, 1)" xlink:href="#SvgjsPath1042"/><use x="510" y="450" stroke="rgba(66, 90, 86, 1)" xlink:href="#SvgjsPath1042"/><use x="510" y="510" stroke="#1c538e" xlink:href="#SvgjsPath1041"/><use x="510" y="570" stroke="#1c538e" xlink:href="#SvgjsPath1042"/><use x="570" y="30" stroke="rgba(66, 90, 86, 1)" xlink:href="#SvgjsPath1041"/><use x="570" y="90" stroke="rgba(74, 66, 90, 1)" xlink:href="#SvgjsPath1043"/><use x="570" y="150" stroke="rgba(74, 66, 90, 1)" xlink:href="#SvgjsPath1041"/><use x="570" y="210" stroke="rgba(66, 90, 86, 1)" xlink:href="#SvgjsPath1042"/><use x="570" y="270" stroke="rgba(74, 66, 90, 1)" xlink:href="#SvgjsPath1043"/><use x="570" y="330" stroke="rgba(74, 66, 90, 1)" xlink:href="#SvgjsPath1045"/><use x="570" y="390" stroke="rgba(66, 90, 86, 1)" xlink:href="#SvgjsPath1041"/><use x="570" y="450" stroke="rgba(74, 66, 90, 1)" xlink:href="#SvgjsPath1043"/><use x="570" y="510" stroke="#1c538e" xlink:href="#SvgjsPath1041"/><use x="570" y="570" stroke="rgba(66, 90, 86, 1)" xlink:href="#SvgjsPath1042"/><use x="630" y="30" stroke="#1c538e" xlink:href="#SvgjsPath1042"/><use x="630" y="90" stroke="#1c538e" xlink:href="#SvgjsPath1042"/><use x="630" y="150" stroke="rgba(74, 66, 90, 1)" xlink:href="#SvgjsPath1043"/><use x="630" y="210" stroke="rgba(74, 66, 90, 1)" xlink:href="#SvgjsPath1042"/><use x="630" y="270" stroke="#1c538e" xlink:href="#SvgjsPath1042"/><use x="630" y="330" stroke="rgba(74, 66, 90, 1)" xlink:href="#SvgjsPath1042"/><use x="630" y="390" stroke="rgba(66, 90, 86, 1)" xlink:href="#SvgjsPath1045"/><use x="630" y="450" stroke="#1c538e" xlink:href="#SvgjsPath1044"/><use x="630" y="510" stroke="#1c538e" xlink:href="#SvgjsPath1043"/><use x="630" y="570" stroke="#1c538e" xlink:href="#SvgjsPath1042"/><use x="690" y="30" stroke="rgba(66, 90, 86, 1)" xlink:href="#SvgjsPath1043"/><use x="690" y="90" stroke="#1c538e" xlink:href="#SvgjsPath1041"/><use x="690" y="150" stroke="#1c538e" xlink:href="#SvgjsPath1043"/><use x="690" y="210" stroke="rgba(74, 66, 90, 1)" xlink:href="#SvgjsPath1041"/><use x="690" y="270" stroke="#1c538e" stroke-width="3" xlink:href="#SvgjsPath1046"/><use x="690" y="330" stroke="rgba(74, 66, 90, 1)" xlink:href="#SvgjsPath1042"/><use x="690" y="390" stroke="rgba(66, 90, 86, 1)" xlink:href="#SvgjsPath1043"/><use x="690" y="450" stroke="rgba(74, 66, 90, 1)" xlink:href="#SvgjsPath1043"/><use x="690" y="510" stroke="rgba(66, 90, 86, 1)" xlink:href="#SvgjsPath1042"/><use x="690" y="570" stroke="rgba(74, 66, 90, 1)" xlink:href="#SvgjsPath1042"/></symbol></svg>