<svg xmlns="http://www.w3.org/2000/svg" xmlns:svgjs="http://svgjs.com/svgjs" xmlns:xlink="http://www.w3.org/1999/xlink" id="Layer_1" x="0" y="0" version="1.1" viewBox="0 0 1440 560" xml:space="preserve" style="enable-background:new 0 0 1440 560"><style type="text/css">.st0{fill:none}.st1{fill:#46206f}.st2{fill:#6830a7}.st3{opacity:.57}.st4{font-family:&apos;OpenSans-ExtraBold&apos;}.st5{font-size:564.4977px}</style><g><rect width="1440" height="560" class="st0"/><path d="M0,424.5c80.3,16,163.9-18,232.2-63.2c67.8-44.8,123.1-110.4,147.5-187.9c23.1-73.4-8.9-149-17.4-225.5 c-8.8-79.5,15.8-169.8-33.5-232.8c-49.6-63.3-139.2-78.2-218.9-89.3c-71.8-10-145.3-1-211,29.6c-60.2,28-90,92.4-141.4,134.4 c-65.5,53.7-178.1,64.9-201.4,146.3c-22.8,79.3,45.1,157.6,95.4,223c43.1,55.9,112.9,77.5,169,120.2C-117.1,327-77,409.2,0,424.5" class="st1"/><path d="M1440,1072.4c92.3-25.7,125.5-140,205.8-192.1c79.8-51.8,196.1-36.1,257.7-108.6c66.3-78.1,111.1-192,81-290 c-30-97.9-146.8-134.3-229.7-194.6c-63.9-46.5-127-87.9-200.1-118c-81.2-33.5-162.1-78.1-249.3-67.3 c-93.7,11.5-190.5,52-246.2,128.3c-54.6,74.9-39.3,176.3-43.7,268.9c-4,83.9-1,164.6,19.1,246.1c24.2,97.7,31.4,211.6,109.7,274.9 C1223.9,1084.1,1341.6,1099.8,1440,1072.4" class="st2"/></g><text class="st3 st4 st5" transform="matrix(1 0 0 1 222.5963 477.5767)">API</text></svg>